<svg xmlns="http://www.w3.org/2000/svg" viewBox="0 0 1200 630" role="img" aria-label="MediaListory social card">
  <defs>
    <linearGradient id="bg" x1="0" y1="0" x2="1200" y2="630" gradientUnits="userSpaceOnUse">
      <stop offset="0" stop-color="#0b1220"/>
      <stop offset="1" stop-color="#131c33"/>
    </linearGradient>
    <linearGradient id="mark" x1="0" y1="0" x2="120" y2="120" gradientUnits="userSpaceOnUse">
      <stop offset="0" stop-color="#3b82f6"/>
      <stop offset="1" stop-color="#8b5cf6"/>
    </linearGradient>
  </defs>
  <rect width="1200" height="630" fill="url(#bg)"/>
  <g transform="translate(90 90)">
    <rect width="120" height="120" rx="26" fill="url(#mark)"/>
    <rect x="30" y="34" width="45" height="10" rx="5" fill="#fff"/>
    <rect x="30" y="55" width="34" height="10" rx="5" fill="#fff" opacity="0.85"/>
    <rect x="30" y="76" width="23" height="10" rx="5" fill="#fff" opacity="0.7"/>
    <path d="M77 57l16 9-16 9z" fill="#fff"/>
  </g>
  <text x="240" y="150" font-family="Segoe UI, Arial, sans-serif" font-size="64" font-weight="700" fill="#f1f5f9">MediaListory</text>
  <text x="240" y="200" font-family="Segoe UI, Arial, sans-serif" font-size="30" font-weight="500" fill="#94a3b8">Track everything you watch and play, in one place</text>
  <g transform="translate(90 330)" font-family="Segoe UI, Arial, sans-serif" font-size="30" font-weight="600">
    <g><rect width="230" height="70" rx="35" fill="#1e293b"/><text x="115" y="46" text-anchor="middle" fill="#60a5fa">Movies</text></g>
    <g transform="translate(260 0)"><rect width="230" height="70" rx="35" fill="#1e293b"/><text x="115" y="46" text-anchor="middle" fill="#34d399">Series</text></g>
    <g transform="translate(520 0)"><rect width="230" height="70" rx="35" fill="#1e293b"/><text x="115" y="46" text-anchor="middle" fill="#f472b6">Anime</text></g>
    <g transform="translate(780 0)"><rect width="230" height="70" rx="35" fill="#1e293b"/><text x="115" y="46" text-anchor="middle" fill="#fbbf24">Games</text></g>
  </g>
  <text x="90" y="560" font-family="Segoe UI, Arial, sans-serif" font-size="26" fill="#64748b">Rate, review, and share your library — data from TMDB, Kitsu &amp; IGDB</text>
</svg>
